#!OML:ASF H:\Martial Arts Walks\Project 1\Capture day 1\Session 1\male.ASF
:FULLY-SPECIFIED
:DEGREES
1307
root -1.07819 14.0391 -4.17543 12.2807 -27.8702 -15.9871
lowerback 11.288 0.399046 6.95363
upperback -1.05927 1.83088 5.23711
thorax -7.45739 0.704099 1.33427
lowerneck -3.15463 7.3472 1.41629
upperneck 5.26876 9.70081 0.636517
head 2.22938 4.87325 0.245986
rclavicle 3.79213e-014 -1.24737e-014
rhumerus -79.0238 21.6327 -96.1426
rradius 111.446
rwrist -53.2594
rhand 0.215619 -13.4131
rfingers 7.12502
rthumb 25.7969 -41.684
lclavicle 3.79213e-014 -1.24737e-014
lhumerus 5.97531 -4.08756 69.6785
lradius 27.4965
lwrist -41.4074
lhand -23.2514 28.9521
lfingers 7.12502
lthumb 3.20034 58.9078
rfemur 10.3989 -4.60389 14.59
rtibia 33.6821
rfoot -22.6223 -30.6885
rtoes -25.3677
lfemur -65.2315 30.5669 -3.4636
ltibia 72.1041
lfoot -5.73051 -4.97029
ltoes -1.75837
1308
root -1.07191 14.0365 -4.17554 12.29 -27.8168 -15.9798
lowerback 11.3063 0.375492 6.95512
upperback -1.0725 1.80223 5.22449
thorax -7.48245 0.689169 1.32506
lowerneck -3.13793 7.33548 1.42362
upperneck 5.26853 9.68597 0.619559
head 2.22757 4.86554 0.238429
rclavicle -3.56601e-014 7.37988e-015
rhumerus -79.0711 21.5715 -96.1259
rradius 111.479
rwrist -53.1937
rhand 0.242631 -13.3743
rfingers 7.12502
rthumb 25.8228 -41.6414
lclavicle -3.56601e-014 7.37988e-015
lhumerus 6.07139 -4.14943 69.6551
lradius 27.4079
lwrist -41.3893
lhand -23.3085 28.9111
lfingers 7.12502
lthumb 3.1452 58.8677
rfemur 10.4694 -4.54351 14.5844
rtibia 33.5396
rfoot -22.5327 -30.6897
rtoes -25.6849
lfemur -65.3621 30.5408 -3.57053
ltibia 72.139
lfoot -5.58891 -5.13198
ltoes -1.35021
1309
root -1.06573 14.0339 -4.17515 12.3114 -27.7727 -15.976
lowerback 11.3057 0.363606 6.95668
upperback -1.08407 1.78724 5.21768
thorax -7.49472 0.681307 1.31971
lowerneck -3.12199 7.32271 1.43297
upperneck 5.27072 9.67014 0.593161
head 2.22732 4.85714 0.227733
rclavicle 4.29251e-015 1.21507e-014
rhumerus -79.1255 21.5017 -96.0933
rradius 111.509
rwrist -53.1206
rhand 0.298487 -13.316
rfingers 7.12502
rthumb 25.8762 -41.5753
lclavicle 4.29251e-015 1.21507e-014
lhumerus 6.17352 -4.18539 69.6565
lradius 27.3252
lwrist -41.4227
lhand -23.3685 28.8547
lfingers 7.12502
lthumb 3.08721 58.8121
rfemur 10.5236 -4.52075 14.5601
rtibia 33.4056
rfoot -22.4494 -30.6626
rtoes -26.0065
lfemur -65.4953 30.5141 -3.67064
ltibia 72.1811
lfoot -5.47791 -5.2483
ltoes -1.06187
1310
root -1.05948 14.031 -4.17444 12.3442 -27.7414 -15.9878
lowerback 11.2943 0.361222 6.96279
upperback -1.09079 1.78452 5.22147
thorax -7.49554 0.679722 1.32099
lowerneck -3.10064 7.31306 1.44608
upperneck 5.26385 9.65903 0.555416
head 2.22394 4.85085 0.212615
rclavicle -4.48197e-015 3.70236e-015
rhumerus -79.1799 21.4382 -96.049
rradius 111.529
rwrist -53.055
rhand 0.38823 -13.2295
rfingers 7.12502
rthumb 25.9622 -41.4763
lclavicle -4.48197e-015 3.70236e-015
lhumerus 6.2739 -4.20794 69.6717
lradius 27.2593
lwrist -41.5167
lhand -23.4147 28.7815
lfingers 7.12502
lthumb 3.04259 58.7395
rfemur 10.5616 -4.53894 14.5261
rtibia 33.2885
rfoot -22.3753 -30.6077
rtoes -26.3145
lfemur -65.6225 30.4955 -3.74694
ltibia 72.232
lfoot -5.40018 -5.32112
ltoes -0.878817
1311
root -1.05308 14.028 -4.17348 12.3849 -27.7252 -16.0165
lowerback 11.2774 0.36725 6.97236
upperback -1.09139 1.79295 5.2363
thorax -7.48661 0.683895 1.33014
lowerneck -3.07399 7.3084 1.46022
upperneck 5.247 9.65497 0.511941
head 2.21671 4.84794 0.195284
rclavicle 3.01811e-014 -2.86995e-014
rhumerus -79.2276 21.3885 -95.9969
rradius 111.537
rwrist -53.0053
rhand 0.506775 -13.1335
rfingers 7.12502
rthumb 26.0757 -41.3636
lclavicle 3.01811e-014 -2.86995e-014
lhumerus 6.36858 -4.22706 69.6935
lradius 27.2147
lwrist -41.6683
lhand -23.4374 28.6922
lfingers 7.12502
lthumb 3.02066 58.6506
rfemur 10.5833 -4.59302 14.4852
rtibia 33.1946
rfoot -22.3184 -30.5252
rtoes -26.5877
lfemur -65.7368 30.4895 -3.79608
ltibia 72.2899
lfoot -5.35001 -5.35915
ltoes -0.7528
1312
root -1.04644 14.0251 -4.17259 12.4303 -27.7219 -16.0607
lowerback 11.2616 0.378113 6.9834
upperback -1.08647 1.80823 5.26115
thorax -7.47254 0.691678 1.34792
lowerneck -3.04272 7.30934 1.47445
upperneck 5.22301 9.65844 0.468726
head 2.20632 4.84879 0.177857
rclavicle -6.45802e-014 -2.61899e-014
rhumerus -79.2625 21.3623 -95.9453
rradius 111.528
rwrist -52.9774
rhand 0.65192 -13.0316
rfingers 7.12502
rthumb 26.2147 -41.2412
lclavicle -6.45802e-014 -2.61899e-014
lhumerus 6.45197 -4.25018 69.7139
lradius 27.1942
lwrist -41.8476
lhand -23.4383 28.6016
lfingers 7.12502
lthumb 3.01987 58.56
rfemur 10.5886 -4.67596 14.4408
rtibia 33.1275
rfoot -22.2874 -30.4171
rtoes -26.8124
lfemur -65.8363 30.4942 -3.8195
ltibia 72.3508
lfoot -5.31875 -5.37242
ltoes -0.652026
1313
root -1.03967 14.0222 -4.17193 12.4786 -27.7281 -16.1182
lowerback 11.2488 0.391131 6.99579
upperback -1.0763 1.82676 5.29243
thorax -7.45461 0.701233 1.37118
lowerneck -3.01559 7.31388 1.49338
upperneck 5.20019 9.6662 0.42918
head 2.19716 4.85197 0.161159
rclavicle 3.24267e-015 -4.25151e-014
rhumerus -79.2809 21.3617 -95.9021
rradius 111.502
rwrist -52.9689
rhand 0.792061 -12.9429
rfingers 7.12502
rthumb 26.3488 -41.1325
lclavicle 3.24267e-015 -4.25151e-014
lhumerus 6.52529 -4.28166 69.7261
lradius 27.1938
lwrist -42.016
lhand -23.4299 28.5215
lfingers 7.12502
lthumb 3.02794 58.4797
rfemur 10.5781 -4.77253 14.3996
rtibia 33.0877
rfoot -22.2771 -30.2941
rtoes -26.9914
lfemur -65.9207 30.506 -3.81916
ltibia 72.4105
lfoot -5.3017 -5.36976
ltoes -0.55519
1314
root -1.03294 14.0194 -4.17171 12.5268 -27.7401 -16.1773
lowerback 11.2369 0.406462 7.00296
upperback -1.06331 1.84752 5.32419
thorax -7.43429 0.712186 1.39744
lowerneck -2.99742 7.31713 1.51584
upperneck 5.18597 9.67126 0.400433
head 2.19203 4.85416 0.147766
rclavicle -2.98457e-014 3.00413e-014
rhumerus -79.2826 21.3771 -95.871
rradius 111.459
rwrist -52.966
rhand 0.899612 -12.875
rfingers 7.12502
rthumb 26.4518 -41.0491
lclavicle -2.98457e-014 3.00413e-014
lhumerus 6.59213 -4.32757 69.7308
lradius 27.2045
lwrist -42.1428
lhand -23.4215 28.462
lfingers 7.12502
lthumb 3.03602 58.4202
rfemur 10.5518 -4.87075 14.3593
rtibia 33.0709
rfoot -22.2779 -30.1701
rtoes -27.1406
lfemur -65.995 30.5197 -3.80949
ltibia 72.4671
lfoot -5.29474 -5.3568
ltoes -0.459347
1315
root -1.02644 14.0167 -4.17199 12.573 -27.7547 -16.2371
lowerback 11.2253 0.424882 7.01096
upperback -1.04888 1.87216 5.35213
thorax -7.41229 0.724974 1.41845
lowerneck -2.98983 7.31378 1.54208
upperneck 5.18686 9.66617 0.388296
head 2.19303 4.85179 0.139432
rclavicle -6.4181e-014 -6.03187e-014
rhumerus -79.2721 21.3949 -95.8549
rradius 111.401
rwrist -52.9546
rhand 0.959199 -12.8306
rfingers 7.12502
rthumb 26.5088 -40.9961
lclavicle -6.4181e-014 -6.03187e-014
lhumerus 6.6582 -4.39584 69.7283
lradius 27.2158
lwrist -42.2115
lhand -23.4177 28.4293
lfingers 7.12502
lthumb 3.03972 58.3873
rfemur 10.5141 -4.95906 14.3266
rtibia 33.0737
rfoot -22.2841 -30.0555
rtoes -27.2618
lfemur -66.06 30.5333 -3.79031
ltibia 72.5203
lfoot -5.29751 -5.33973
ltoes -0.372811
1316
root -1.02037 14.0137 -4.17186 12.6074 -27.7794 -16.2917
lowerback 11.2201 0.44531 7.00985
upperback -1.03691 1.899 5.37679
thorax -7.39677 0.738986 1.44066
lowerneck -2.96556 7.30646 1.55711
upperneck 5.18423 9.65511 0.403733
head 2.18768 4.84696 0.140318
rclavicle 2.628e-014 -2.30217e-014
rhumerus -79.2634 21.4156 -95.8568
rradius 111.331
rwrist -52.9425
rhand 0.968703 -12.8242
rfingers 7.12502
rthumb 26.5179 -40.9883
lclavicle 2.628e-014 -2.30217e-014
lhumerus 6.70885 -4.48546 69.7195
lradius 27.221
lwrist -42.2102
lhand -23.3947 28.4107
lfingers 7.12502
lthumb 3.06191 58.3684
rfemur 10.4813 -5.03062 14.2896
rtibia 33.09
rfoot -22.2966 -29.9527
rtoes -27.3737
lfemur -66.1052 30.5581 -3.7663
ltibia 72.5757
lfoot -5.31419 -5.32752
ltoes -0.292778
1317
root -1.01488 14.0102 -4.17189 12.631 -27.8098 -16.34
lowerback 11.2199 0.468553 7.00102
upperback -1.02516 1.92877 5.39538
thorax -7.38419 0.754571 1.46015
lowerneck -2.93069 7.28907 1.56586
upperneck 5.17616 9.63011 0.437162
head 2.17722 4.83553 0.146684
rclavicle 2.0655e-014 4.34717e-014
rhumerus -79.252 21.4275 -95.8708
rradius 111.25
rwrist -52.9264
rhand 0.943794 -12.843
rfingers 7.12502
rthumb 26.4941 -41.0107
lclavicle 2.0655e-014 4.34717e-014
lhumerus 6.75903 -4.57071 69.7117
lradius 27.2111
lwrist -42.1874
lhand -23.3583 28.3924
lfingers 7.12502
lthumb 3.09711 58.3497
rfemur 10.4527 -5.08177 14.2545
rtibia 33.1157
rfoot -22.3123 -29.8671
rtoes -27.4793
lfemur -66.1387 30.5922 -3.7415
ltibia 72.633
lfoot -5.33775 -5.32475
ltoes -0.22871
1318
root -1.01002 14.0062 -4.17193 12.6402 -27.8451 -16.3829
lowerback 11.2301 0.491353 6.98079
upperback -1.01322 1.95738 5.41051
thorax -7.37764 0.769866 1.48242
lowerneck -2.88339 7.26567 1.56818
upperneck 5.15835 9.59691 0.484245
head 2.16018 4.82023 0.157207
rclavicle 5.40291e-015 -1.5294e-014
rhumerus -79.2419 21.4371 -95.8961
rradius 111.166
rwrist -52.9243
rhand 0.901735 -12.8776
rfingers 7.12502
rthumb 26.4538 -41.0514
lclavicle 5.40291e-015 -1.5294e-014
lhumerus 6.80488 -4.63293 69.7058
lradius 27.1856
lwrist -42.1574
lhand -23.3018 28.3553
lfingers 7.12502
lthumb 3.15162 58.3118
rfemur 10.4372 -5.11534 14.2203
rtibia 33.1452
rfoot -22.332 -29.7976
rtoes -27.5824
lfemur -66.158 30.6382 -3.71507
ltibia 72.6932
lfoot -5.36659 -5.33685
ltoes -0.177531
1319
root -1.00578 14.0018 -4.17212 12.6373 -27.883 -16.4222
lowerback 11.2516 0.512961 6.95024
upperback -1.00084 1.98413 5.42352
thorax -7.37738 0.784501 1.5084
lowerneck -2.82914 7.23655 1.56548
upperneck 5.13103 9.55625 0.536055
head 2.13823 4.80121 0.169206
rclavicle -3.86698e-014 -1.29459e-014
rhumerus -79.2328 21.4432 -95.9279
rradius 111.085
rwrist -52.9456
rhand 0.850836 -12.9248
rfingers 7.12502
rthumb 26.4051 -41.1059
lclavicle -3.86698e-014 -1.29459e-014
lhumerus 6.85089 -4.65392 69.7061
lradius 27.1444
lwrist -42.1436
lhand -23.2346 28.2836
lfingers 7.12502
lthumb 3.21655 58.2391
rfemur 10.4344 -5.13208 14.191
rtibia 33.1752
rfoot -22.3471 -29.7476
rtoes -27.6904
lfemur -66.1669 30.6964 -3.68816
ltibia 72.7539
lfoot -5.39588 -5.365
ltoes -0.150147
